<?xml version="1.0" encoding="UTF-8" standalone="no"?>
<!DOCTYPE svg PUBLIC "-//W3C//DTD SVG 1.1//EN" "http://www.w3.org/Graphics/SVG/1.1/DTD/svg11.dtd">
<svg width="100%" height="100%" viewBox="0 0 2481 2481" version="1.1" xmlns="http://www.w3.org/2000/svg" xmlns:xlink="http://www.w3.org/1999/xlink" xml:space="preserve" xmlns:serif="http://www.serif.com/" style="fill-rule:evenodd;clip-rule:evenodd;stroke-linecap:round;stroke-linejoin:round;stroke-miterlimit:1.5;">
    <g transform="matrix(1,0,0,1,0,76.7992)">
        <g transform="matrix(0.96052,0,0,1.29625,83.4312,-300.694)">
            <path d="M2113.27,566.169C2113.27,542.782 2087.64,523.795 2056.08,523.795L352.46,523.795C320.899,523.795 295.276,542.782 295.276,566.169L295.276,972.626C295.276,996.013 320.899,1015 352.46,1015L2056.08,1015C2087.64,1015 2113.27,996.013 2113.27,972.626L2113.27,566.169Z" style="fill:white;stroke:rgb(0,36,57);stroke-width:7.3px;"/>
        </g>
        <path d="M638.324,581.989L639.524,570.439L622.874,570.439L623.924,560.089L640.574,560.089L641.624,550.639L622.574,550.639L623.624,539.989L632.474,539.989C632.024,536.539 631.424,533.239 631.124,529.939L626.024,529.939L627.224,519.289L644.024,519.289L645.074,509.989L657.074,509.989L656.174,519.289L672.224,519.289L671.024,529.939L666.974,529.939C665.774,533.239 664.124,536.689 662.174,539.989L672.974,539.989L671.774,550.639L653.024,550.639L651.974,560.089L667.424,560.089L666.374,570.439L650.924,570.439L649.724,581.989L638.324,581.989ZM642.524,539.989L651.674,539.989C653.474,536.689 655.124,533.389 656.624,529.939L641.324,529.939C641.624,533.239 642.074,536.689 642.524,539.989ZM619.724,559.189L617.324,580.639L585.824,580.639L588.524,555.739C585.824,565.189 581.474,574.339 575.624,581.389L569.024,571.339C575.924,561.289 579.224,552.439 581.174,533.689L583.124,514.489L613.124,514.489C617.774,514.489 623.174,516.589 622.424,523.639L620.324,544.639L591.224,544.639C590.924,546.739 590.474,548.689 589.874,550.789L612.074,550.789C618.674,550.789 620.324,554.239 619.724,559.189ZM596.924,570.889L608.174,570.889L609.524,560.539L597.974,560.539L596.924,570.889ZM592.574,534.289L610.424,534.289L611.324,524.989L593.474,524.989L592.574,534.289ZM576.374,655.189L583.724,585.289L646.874,585.289C655.274,585.289 659.024,588.889 658.424,595.189L654.374,634.039C652.874,648.589 645.674,655.639 634.724,655.639C625.874,655.639 618.824,649.789 616.424,638.089L626.774,635.089C628.124,640.489 630.074,643.339 634.274,643.339C638.174,643.339 640.574,639.739 641.474,631.039L591.974,631.039L589.424,655.189L576.374,655.189ZM594.824,603.289L644.474,603.289L645.224,595.939L595.724,595.939L594.824,603.289ZM593.024,620.839L642.674,620.839L643.424,613.489L593.774,613.489L593.024,620.839ZM794.324,526.489L780.524,655.189L685.874,655.189L700.724,514.339L782.924,514.339C791.924,514.339 795.074,519.289 794.324,526.489ZM700.424,642.439L768.824,642.439L781.124,527.089L712.424,527.089L700.424,642.439ZM728.774,637.339L732.974,597.739L709.274,597.739L710.624,586.039L734.174,586.039L735.224,575.689L715.274,575.689L716.474,564.289L736.424,564.289L737.474,555.289L715.124,555.289L716.324,543.439L738.674,543.439L739.874,532.189L751.124,532.189L749.924,543.439L773.624,543.439L772.274,555.289L748.724,555.289L747.674,564.289L768.374,564.289L767.174,575.689L746.474,575.689L745.424,586.039L759.524,586.039C764.924,586.039 768.974,590.239 768.074,597.139L766.424,609.589C764.774,621.589 760.124,627.739 751.424,627.739C747.374,627.739 744.074,626.389 741.524,623.839L740.024,637.339L728.774,637.339ZM755.924,606.139L756.974,597.739L744.224,597.739L743.174,607.639C744.374,614.389 747.524,616.939 749.924,616.939C753.524,616.939 755.174,612.589 755.924,606.139ZM846.974,655.189L855.674,572.239C844.874,587.989 830.924,602.389 811.874,616.939L803.174,604.939C832.424,582.739 852.224,556.339 861.824,529.189L818.774,529.189L820.124,516.139L917.174,516.139L915.824,529.189L876.824,529.189C875.474,533.089 873.974,536.839 872.474,540.589L860.774,655.189L846.974,655.189ZM910.874,608.839L897.824,614.389C890.924,593.689 881.624,572.389 873.824,558.889L886.424,552.889C895.274,568.489 904.274,588.289 910.874,608.839ZM999.824,627.139C1000.57,636.739 1001.92,641.689 1005.22,641.689C1008.22,641.689 1010.47,637.789 1011.82,624.739L1024.12,509.989L1036.57,509.989L1024.42,625.939C1022.32,645.289 1017.22,655.339 1005.07,655.339C995.774,655.339 989.624,646.489 988.574,628.789L999.824,627.139ZM981.074,536.539C985.274,548.689 988.424,560.839 989.924,571.189L979.124,574.789C978.674,571.939 978.074,568.789 977.324,565.639C963.674,569.089 950.174,571.939 935.624,573.889L933.674,561.589C935.624,561.289 937.724,561.139 939.674,560.839C946.274,550.339 951.524,539.389 955.724,528.139L939.074,528.139L940.574,515.239L995.324,515.239L993.974,528.139L968.174,528.139C964.124,538.939 959.324,549.139 953.474,558.889C960.674,557.689 967.724,556.339 974.774,554.689C973.424,549.889 971.924,545.089 970.274,540.289L981.074,536.539ZM990.524,617.239L1000.42,523.789L1012.42,523.789L1002.52,617.239L990.524,617.239ZM928.274,652.039L925.424,639.589C933.374,638.089 941.174,636.589 948.824,634.789L951.974,605.239L931.724,605.239L933.074,592.339L953.324,592.339L954.974,575.989L967.424,575.989L965.774,592.339L982.874,592.339L981.524,605.239L964.424,605.239L961.574,631.639C968.024,629.839 974.324,627.889 980.474,625.789L984.074,638.239C966.374,643.939 947.774,648.439 928.274,652.039ZM1145.47,638.389L1143.97,651.739L1046.02,651.739L1047.52,638.389L1074.52,638.389L1086.52,577.939L1062.22,577.939L1063.72,564.439L1089.07,564.439L1095.82,530.539L1062.97,530.539L1064.32,517.339L1151.17,517.339L1149.67,530.539L1109.92,530.539L1103.17,564.439L1123.57,564.439C1133.17,564.439 1136.47,569.989 1135.57,577.939L1128.37,638.389L1145.47,638.389ZM1088.62,638.389L1114.72,638.389L1121.77,577.939L1100.62,577.939L1088.62,638.389ZM1205.17,655.189L1212.82,579.289L1169.02,579.289L1170.52,565.039L1214.32,565.039L1219.87,509.989L1234.12,509.989L1228.57,565.039L1273.12,565.039L1271.62,579.289L1227.07,579.289L1219.42,655.189L1205.17,655.189ZM1385.47,638.389L1383.97,651.739L1286.02,651.739L1287.52,638.389L1314.52,638.389L1326.52,577.939L1302.22,577.939L1303.72,564.439L1329.07,564.439L1335.82,530.539L1302.97,530.539L1304.32,517.339L1391.17,517.339L1389.67,530.539L1349.92,530.539L1343.17,564.439L1363.57,564.439C1373.17,564.439 1376.47,569.989 1375.57,577.939L1368.37,638.389L1385.47,638.389ZM1328.62,638.389L1354.72,638.389L1361.77,577.939L1340.62,577.939L1328.62,638.389ZM590.474,878.189L576.974,878.189L585.974,794.939C582.524,800.489 578.774,806.039 574.724,811.589L564.374,801.839C580.574,781.439 593.024,756.239 602.024,732.689L614.174,738.389C610.874,747.689 606.824,756.989 602.174,766.289L590.474,878.189ZM623.774,849.539C625.274,857.189 629.024,864.239 634.574,864.239C640.574,864.239 644.774,859.739 645.974,849.239L656.324,756.989L613.574,756.989L615.224,743.189L680.174,743.189L678.524,756.989L668.924,756.989L658.724,850.439C656.924,866.639 649.874,878.489 635.174,878.489C619.874,878.489 612.224,865.439 609.974,852.389L623.774,849.539ZM643.424,783.689L637.724,836.339L605.624,836.339L612.374,772.889L633.524,772.889C639.224,772.889 644.174,776.789 643.424,783.689ZM617.924,824.189L627.524,824.189L631.574,785.039L621.974,785.039L617.924,824.189ZM760.424,763.439L750.074,770.789C743.474,758.939 736.274,749.489 728.624,740.189L738.824,732.989C747.374,742.589 753.824,752.339 760.424,763.439ZM688.274,876.089L682.274,864.389C693.524,858.389 703.874,851.039 713.474,842.189C713.624,839.489 713.924,836.639 714.224,833.489L722.774,761.489L736.424,761.489L728.624,826.289C747.074,804.389 762.074,775.889 774.374,740.039L786.824,744.089C770.924,789.239 751.274,823.289 726.674,847.739C726.674,861.389 730.724,865.289 738.074,865.289C747.824,865.289 753.524,854.639 756.524,831.689L769.424,834.089C765.824,864.089 755.624,879.239 737.474,879.239C725.624,879.239 716.774,874.739 714.074,859.139C705.974,865.739 697.424,871.289 688.274,876.089ZM687.974,836.489C695.024,816.839 699.524,797.789 702.974,776.639L716.024,778.889C712.424,799.889 708.224,820.139 701.024,840.689L687.974,836.489ZM782.174,793.889C784.874,815.639 786.824,837.839 787.874,859.589L774.524,861.839C773.924,839.039 772.274,816.839 769.574,795.989L782.174,793.889ZM815.174,878.189L821.924,813.539C818.324,818.189 814.574,822.989 810.374,827.489L803.324,817.889C816.524,804.539 829.724,785.339 837.824,765.689L816.074,765.689L817.424,753.089L828.674,753.089L830.324,736.589L843.524,736.589L841.874,753.089L842.174,753.089C850.574,753.089 853.724,759.239 851.174,765.689C847.574,774.839 842.924,784.139 837.224,793.589L836.474,801.539C836.774,801.989 837.074,802.289 837.524,802.739C840.374,798.689 842.924,794.489 845.474,789.839L853.574,794.789C850.574,800.339 847.274,805.439 843.824,810.239C846.224,813.389 848.774,816.689 851.474,820.289L843.824,829.439C840.824,824.639 837.824,820.289 834.824,816.239L828.224,878.189L815.174,878.189ZM910.574,753.839L900.974,843.239L851.624,843.239L862.274,741.839L900.074,741.839C907.874,741.839 911.324,746.939 910.574,753.839ZM865.874,830.639L889.424,830.639L893.024,797.039L869.324,797.039L865.874,830.639ZM870.524,785.489L894.374,785.489L897.674,754.439L873.824,754.439L870.524,785.489ZM906.524,860.339L905.024,874.439L837.224,874.439L838.724,860.339L906.524,860.339ZM990.974,855.989C992.624,863.939 995.474,867.239 1000.87,867.239C1006.72,867.239 1011.07,862.889 1012.87,845.939L1021.42,763.589L987.074,763.589C984.974,767.489 982.724,771.239 980.324,774.989L987.374,772.289C989.174,777.989 990.824,784.589 992.324,791.639C994.274,785.339 995.924,778.739 997.274,771.839L1006.27,773.489C1003.12,785.939 999.824,797.339 995.624,807.839C996.974,814.289 998.174,821.039 999.374,827.939L1003.72,788.939L1014.07,788.939L1007.32,851.189L964.574,851.189L971.174,788.939L981.374,788.939L977.474,826.439C981.224,819.989 984.374,813.389 987.224,806.489C984.824,795.389 982.424,785.339 979.274,776.639C978.074,778.289 977.024,779.939 975.824,781.589L967.124,776.189L958.424,859.439C957.074,871.589 952.874,878.189 945.224,878.189C938.924,878.189 935.174,873.389 934.124,863.489C932.624,868.889 931.124,873.689 929.624,878.489L918.974,873.839C925.724,855.539 931.124,827.189 935.174,787.139L940.274,737.789L960.674,737.789C967.724,737.789 970.724,741.689 969.974,749.189L967.424,773.639C976.424,760.739 983.024,747.089 987.224,733.889L998.324,737.189C996.824,741.689 995.024,746.639 992.924,751.589L1022.32,751.589C1029.82,751.589 1033.72,755.789 1032.97,763.139L1024.12,848.039C1021.27,875.489 1009.72,878.639 1000.42,878.639C990.074,878.639 981.524,870.989 979.574,857.189L990.974,855.989ZM947.924,775.589L956.024,775.589L958.574,750.239L950.624,750.239L947.924,775.589ZM981.974,836.039L976.874,832.139L976.124,839.489L998.174,839.489L998.774,833.939L993.224,836.189C992.174,830.939 991.124,825.839 990.074,820.889C987.674,826.139 984.974,831.089 981.974,836.039ZM945.674,796.289C944.924,803.039 944.174,809.189 943.424,815.039L951.824,815.039L954.674,787.439L946.574,787.439L945.674,796.289ZM942.524,857.939C942.824,862.889 943.424,866.789 944.774,866.789C946.124,866.789 946.724,863.489 947.474,856.439L950.624,826.889L941.624,826.889C939.674,839.639 937.574,850.139 935.174,859.289L942.524,857.939ZM1081.27,760.289C1085.62,781.739 1091.62,799.589 1099.72,814.739C1112.32,797.189 1122.37,776.639 1129.27,753.089L1062.67,753.089L1064.17,739.289L1132.57,739.289C1142.47,739.289 1146.52,745.889 1144.42,753.089C1135.57,782.339 1123.42,807.239 1107.82,827.939C1118.02,842.789 1130.77,854.939 1146.67,865.439L1138.72,878.189C1121.77,866.639 1108.72,853.889 1098.52,839.489C1084.72,855.089 1068.82,867.989 1050.82,878.189L1043.02,865.589C1061.02,855.539 1076.92,842.639 1090.42,826.739C1079.92,808.439 1073.02,787.439 1068.07,762.839L1081.27,760.289ZM1187.32,783.539L1175.47,783.539L1178.47,754.439L1219.87,754.439L1220.62,747.389L1184.02,747.389L1185.07,737.189L1269.52,737.189L1268.47,747.389L1232.62,747.389L1231.87,754.439L1265.62,754.439C1271.47,754.439 1274.77,757.589 1274.17,763.139L1271.77,783.539L1259.92,783.539L1262.02,764.039L1230.97,764.039L1227.97,792.689L1215.82,792.689L1218.82,764.039L1189.42,764.039L1187.32,783.539ZM1213.42,768.689L1212.52,777.239L1193.47,777.239L1194.37,768.689L1213.42,768.689ZM1254.82,768.689L1253.92,777.239L1234.87,777.239L1235.77,768.689L1254.82,768.689ZM1212.07,783.239L1211.17,791.789L1192.12,791.789L1193.02,783.239L1212.07,783.239ZM1253.47,783.239L1252.57,791.789L1233.52,791.789L1234.42,783.239L1253.47,783.239ZM1212.22,844.289L1209.52,834.239C1217.92,832.139 1225.42,829.439 1231.72,826.289C1229.77,824.189 1227.97,822.089 1226.47,819.689C1224.22,822.389 1221.97,824.939 1219.42,827.339L1212.37,820.889C1220.32,812.789 1226.47,803.939 1230.22,793.739L1239.67,796.589C1239.07,798.389 1238.32,800.039 1237.57,801.839L1255.72,801.839C1263.97,801.839 1266.67,808.289 1261.87,814.739C1258.87,819.089 1254.97,823.139 1250.32,826.889C1256.02,830.339 1262.47,833.039 1269.97,834.989L1266.37,845.339C1255.57,842.039 1247.17,838.289 1240.42,833.639C1232.62,837.989 1223.47,841.589 1212.22,844.289ZM1233.37,810.839C1235.62,814.289 1238.47,817.589 1241.62,820.439C1245.82,817.439 1249.27,814.139 1251.82,810.839L1233.37,810.839ZM1167.22,878.339L1165.72,868.139C1167.52,867.839 1169.47,867.689 1171.27,867.389L1174.57,834.989L1183.87,834.989L1180.57,866.039C1182.22,865.739 1183.87,865.439 1185.67,865.139L1189.42,829.139L1176.07,829.139L1179.52,797.789L1204.42,797.789C1211.32,797.789 1213.12,801.389 1212.52,806.639L1210.12,829.139L1199.62,829.139L1198.42,839.789L1209.67,839.789L1208.62,849.239L1197.37,849.239L1195.87,863.339C1200.97,862.289 1205.77,861.089 1210.57,859.739L1212.82,869.789C1198.27,873.839 1183.12,876.239 1167.22,878.339ZM1187.62,819.239L1200.52,819.239L1202.02,807.689L1188.82,807.689L1187.62,819.239ZM1260.37,852.989L1257.82,877.589L1215.52,877.589L1219.12,843.839L1251.97,843.839C1259.17,843.839 1260.97,847.589 1260.37,852.989ZM1227.52,868.139L1247.77,868.139L1249.27,853.289L1229.02,853.289L1227.52,868.139ZM1377.07,841.139L1389.22,843.239C1384.27,868.589 1377.07,878.489 1364.62,878.489C1352.62,878.489 1345.42,870.089 1347.82,847.139L1360.12,732.839L1373.62,732.839L1361.47,846.239C1360.12,858.989 1361.32,864.389 1365.67,864.389C1369.87,864.389 1373.32,858.839 1377.07,841.139ZM1351.57,733.889L1354.12,746.789C1337.47,750.989 1316.92,754.439 1296.97,756.389L1295.77,742.589C1315.72,741.089 1333.72,738.089 1351.57,733.889ZM1341.52,785.939L1330.57,781.139C1335.37,774.239 1338.52,766.589 1341.82,754.139L1353.07,757.589C1349.62,770.489 1346.32,778.439 1341.52,785.939ZM1331.32,776.189L1319.92,778.439C1319.02,771.989 1317.67,765.539 1315.72,758.939L1327.12,756.689C1329.07,763.139 1330.42,769.589 1331.32,776.189ZM1314.52,780.389L1302.97,783.539C1301.92,776.639 1300.27,769.889 1298.17,763.289L1309.42,760.589C1311.67,767.339 1313.32,774.089 1314.52,780.389ZM1290.82,839.489L1289.62,826.289C1298.02,825.689 1306.27,824.789 1314.37,823.889L1315.12,813.089L1329.07,798.839L1296.52,798.839L1297.87,786.239L1335.82,786.239C1346.92,786.239 1347.37,794.789 1342.72,799.889L1327.87,816.239L1327.57,821.939C1333.27,821.039 1338.82,820.139 1344.37,818.939L1346.32,831.989C1339.87,833.189 1333.42,834.389 1326.67,835.289L1325.32,856.589C1324.57,867.689 1319.02,878.489 1308.22,878.489C1298.77,878.489 1293.22,872.789 1291.12,861.539L1302.52,858.539C1303.12,862.139 1304.32,864.989 1307.02,864.989C1309.87,864.989 1311.97,862.289 1312.42,855.089L1313.62,837.089C1306.12,837.989 1298.47,838.889 1290.82,839.489Z" style="fill:rgb(0,36,57);"/>
        <g transform="matrix(1,0,0,1,-79,-33.6221)">
            <g transform="matrix(0.581093,0,0,0.581093,750.927,-218.775)">
                <path d="M1572.54,1430C1574.14,1459.64 1591.83,1467.14 1610,1474C1649.19,1459.64 1665.78,1435.77 1666,1405C1669.24,1379.66 1634.99,1357.89 1595,1336.66C1575.34,1332.76 1552.82,1341.24 1527,1364C1492.76,1394.19 1478.92,1450.21 1475.22,1467.95C1424.71,1710.55 1545.57,1828.46 1562.22,1844.95C1592.96,1875.4 1650.74,1904.86 1699,1907.62C1765.17,1872.68 1835.83,1857.16 1912.37,1792.16C1954.28,1756.56 1983.29,1750.63 2027,1724.41C2087.95,1692.37 2122.77,1639.42 2134.49,1568C2132.92,1496.78 2098.35,1436.28 2045,1427C1947.45,1410.04 1894.47,1462.01 1879,1549C1762.2,1537.8 1708.76,1621.93 1697,1701C1668.64,1649.24 1623.23,1616.51 1589.93,1575.08C1549.6,1524.92 1563.66,1444.73 1578.12,1451.68" style="fill:rgb(0,36,57);"/>
            </g>
            <g transform="matrix(0.581093,0,0,0.581093,750.927,-218.775)">
                <path d="M1576.06,1461.39C1575.18,1463.19 1574.18,1465.49 1573.6,1467.65C1567.42,1490.59 1568.93,1537.52 1595.52,1570.59C1625.44,1607.81 1664.97,1638.13 1693.44,1681.24C1710.63,1606.44 1765.03,1533.96 1873.16,1541.33C1881.77,1498.89 1899.52,1465.05 1926.76,1443.4C1955.52,1420.56 1994.99,1411.03 2046.23,1419.94C2102.46,1429.71 2140.01,1492.78 2141.66,1567.84C2141.67,1568.28 2141.64,1568.73 2141.57,1569.16C2129.46,1642.92 2093.41,1697.53 2030.53,1730.66C1987.29,1756.57 1958.5,1762.39 1917.01,1797.63C1839.98,1863.04 1768.94,1878.8 1702.35,1913.96C1701.19,1914.57 1699.89,1914.85 1698.59,1914.77C1648.7,1911.92 1588.95,1881.52 1557.17,1850.04C1540.23,1833.26 1416.8,1713.38 1468.2,1466.49C1472.04,1448.05 1486.69,1389.99 1522.26,1358.62C1550.3,1333.9 1575.04,1325.39 1596.4,1329.63C1597.08,1329.76 1597.74,1330 1598.36,1330.33C1623.14,1343.48 1645.71,1356.95 1659.14,1371.19C1669.38,1382.04 1674.54,1393.51 1673.17,1405.46C1672.79,1438.86 1655.08,1465.12 1612.47,1480.73C1610.85,1481.33 1609.08,1481.32 1607.47,1480.71C1595.59,1476.22 1584.05,1471.23 1576.06,1461.39ZM1568.4,1447.28C1566.79,1442.46 1565.73,1436.89 1565.38,1430.38C1565.17,1426.43 1568.21,1423.05 1572.16,1422.84C1576.11,1422.63 1579.49,1425.66 1579.7,1429.62C1581.01,1453.88 1595.18,1460.65 1610.01,1466.33C1643.85,1453.22 1658.63,1432.24 1658.83,1404.95C1658.83,1404.66 1658.85,1404.38 1658.89,1404.09C1659.93,1395.93 1655.69,1388.43 1648.71,1381.03C1636.31,1367.89 1615.43,1355.66 1592.6,1343.51C1574.88,1340.44 1554.9,1348.96 1531.74,1369.38C1498.84,1398.39 1485.79,1452.36 1482.24,1469.41C1432.62,1707.73 1550.91,1823.65 1567.26,1839.85C1596.56,1868.87 1651.22,1896.99 1697.45,1900.33C1762.68,1866.28 1832.38,1850.69 1907.73,1786.69C1950.01,1750.79 1979.22,1744.71 2023.31,1718.26C2023.43,1718.19 2023.54,1718.12 2023.66,1718.06C2082.37,1687.2 2115.88,1636.18 2127.31,1567.49C2125.63,1500.4 2094.07,1442.81 2043.77,1434.06C1997.47,1426.01 1961.67,1433.99 1935.68,1454.63C1909.54,1475.4 1893.44,1508.71 1886.06,1550.26C1885.41,1553.93 1882.04,1556.49 1878.32,1556.14C1766.37,1545.4 1715.36,1626.28 1704.09,1702.06C1703.64,1705.1 1701.29,1707.52 1698.26,1708.06C1695.23,1708.6 1692.19,1707.15 1690.71,1704.44C1662.57,1653.07 1617.39,1620.69 1584.34,1579.58C1563.91,1554.16 1556.59,1521.48 1556.31,1495.13C1556.11,1476.99 1559.33,1461.81 1563.57,1453.71C1565.02,1450.94 1566.66,1448.82 1568.4,1447.28Z" style="fill:rgb(0,36,57);"/>
            </g>
            <g transform="matrix(0.316909,-0.195191,0.200482,0.658039,1098.53,639.247)">
                <path d="M1877.42,616.728C1846.47,609.569 1818.03,606.295 1792.55,607.599L1795.25,844.749C1810.14,848.516 1837.72,849.119 1885.25,844.749L1877.42,616.728Z" style="fill:white;"/>
            </g>
            <g transform="matrix(0.316909,-0.195191,0.200482,0.658039,1098.53,639.247)">
                <path d="M1888.99,618.206L1896.82,846.227C1896.9,848.684 1894.17,850.541 1889.89,850.934C1838.74,855.638 1808.78,854.374 1792.75,850.321C1787.47,848.987 1783.71,846.03 1783.67,843.198L1780.98,606.048C1780.95,603.476 1784.01,601.598 1788.63,601.362C1815.91,599.966 1846.34,603.385 1879.47,611.047C1884.91,612.305 1888.89,615.302 1888.99,618.206ZM1866.03,620.354C1843.88,615.751 1823.19,613.366 1804.17,613.595C1804.17,613.595 1806.76,840.679 1806.76,840.679C1809.9,841.011 1813.47,841.242 1817.48,841.387C1831.3,841.886 1849.58,841.227 1873.54,839.19L1866.03,620.354Z" style="fill:rgb(0,36,57);"/>
            </g>
            <g transform="matrix(0.316909,-0.195191,0.200482,0.658039,1051.81,666.499)">
                <path d="M1877.07,609.523C1848.72,613.785 1813.34,621.47 1792.36,631.207L1807.02,977.215C1844.94,979.53 1871.88,946.813 1885.24,911.009L1877.07,609.523Z" style="fill:white;"/>
            </g>
            <g transform="matrix(0.316909,-0.195191,0.200482,0.658039,1051.81,666.499)">
                <path d="M1888.64,611.024L1896.81,912.51C1896.82,912.912 1896.76,913.302 1896.62,913.676C1888.32,935.913 1874.8,956.946 1856.96,969.74C1843.32,979.523 1826.69,984.537 1808.68,983.437C1805.4,983.237 1802.07,982.282 1799.54,980.814C1797.01,979.347 1795.52,977.508 1795.45,975.763L1780.79,629.755C1780.72,628.238 1781.73,626.91 1783.63,626.032C1805.42,615.923 1842.06,607.875 1871.5,603.45C1875.05,602.915 1879.38,603.536 1882.89,605.086C1886.4,606.637 1888.58,608.891 1888.64,611.024ZM1865.78,618.405C1843.77,622.428 1820.22,628.152 1804.03,635.071C1804.03,635.071 1818.21,969.878 1818.21,969.879C1825.1,968.216 1831.33,964.929 1837.22,960.705C1853.7,948.887 1865.91,929.425 1873.65,908.902L1865.78,618.405Z" style="fill:rgb(0,36,57);"/>
            </g>
            <g transform="matrix(0.778627,0,0,0.778627,755.489,102.009)">
                <path d="M1429,611.188C1429,571.346 1394.05,539 1351,539C1307.95,539 1273,571.346 1273,611.188C1273,638.142 1289.23,662.85 1315.08,675.264L1320.17,719.47L1348.14,683.328C1349.1,683.36 1350.05,683.376 1351,683.376C1394.05,683.376 1429,651.03 1429,611.188Z" style="fill:white;"/>
            </g>
            <g transform="matrix(0.778627,0,0,0.778627,755.489,102.009)">
                <path d="M1434.35,611.188C1434.35,653.865 1397.11,688.727 1351,688.727C1350.91,688.727 1350.82,688.727 1350.73,688.727L1324.4,722.745C1323.07,724.466 1320.83,725.209 1318.73,724.625C1316.64,724.04 1315.11,722.245 1314.86,720.083C1314.86,720.083 1310.09,678.749 1310.09,678.749C1283.88,665.024 1267.65,639.206 1267.65,611.188C1267.65,568.511 1304.89,533.649 1351,533.649C1397.11,533.649 1434.35,568.511 1434.35,611.188ZM1423.65,611.188C1423.65,574.181 1390.99,544.351 1351,544.351C1311.01,544.351 1278.35,574.181 1278.35,611.188C1278.35,636.138 1293.46,658.949 1317.39,670.44C1319.05,671.236 1320.18,672.826 1320.39,674.651L1323.98,705.802L1343.91,680.052C1344.96,678.692 1346.61,677.921 1348.33,677.979C1349.22,678.01 1350.11,678.025 1351,678.025C1390.99,678.025 1423.65,648.195 1423.65,611.188Z" style="fill:rgb(0,36,57);"/>
            </g>
            <g transform="matrix(0.105798,0,0,0.202144,1621.74,296.863)">
                <path d="M1679.11,1332.11L1565.32,1332.11L1551.66,1372.73C1574.34,1366.38 1595.26,1363.2 1614.43,1363.2C1629.76,1363.2 1644.09,1364.7 1657.43,1367.71C1670.77,1370.72 1682.47,1374.88 1692.53,1380.19C1702.59,1385.5 1710.49,1391.79 1716.24,1399.06C1721.99,1406.33 1724.87,1414.15 1724.87,1422.51C1724.87,1434.63 1719.68,1445.66 1709.3,1455.61C1698.91,1465.56 1683.94,1473.46 1664.38,1479.31C1644.81,1485.16 1622.25,1488.09 1596.7,1488.09C1568.11,1488.09 1544.91,1485.33 1527.11,1479.81C1509.3,1474.29 1496.68,1467.96 1489.25,1460.81C1481.83,1453.67 1478.11,1447.42 1478.11,1442.07C1478.11,1438.81 1480.71,1435.71 1485.9,1432.79C1491.09,1429.86 1497.6,1428.4 1505.42,1428.4C1518.84,1428.4 1528.82,1432.45 1535.37,1440.56C1541.76,1448 1550.38,1453.79 1561.24,1457.93C1572.1,1462.07 1584.24,1464.14 1597.66,1464.14C1609.96,1464.14 1620.74,1462.46 1630,1459.12C1639.26,1455.78 1646.41,1451.18 1651.44,1445.33C1656.47,1439.48 1658.99,1432.83 1658.99,1425.39C1658.99,1417.37 1656.27,1410.51 1650.84,1404.83C1645.41,1399.14 1638.14,1394.9 1629.04,1392.1C1619.94,1389.3 1609.8,1387.9 1598.62,1387.9C1584.88,1387.9 1575.06,1388.78 1569.15,1390.54C1563.24,1392.29 1554.74,1395.36 1543.63,1399.75C1532.54,1404.14 1523.39,1406.33 1516.2,1406.33C1508.38,1406.33 1501.43,1404.85 1495.36,1401.88C1489.29,1398.91 1486.26,1395.55 1486.26,1391.79C1486.26,1391.37 1487.14,1388.53 1488.89,1383.26L1509.02,1323.2C1511.25,1316.01 1515.41,1310.79 1521.48,1307.53C1527.54,1304.27 1537.45,1302.64 1551.18,1302.64L1677.67,1302.64C1702.59,1302.64 1715.05,1307.61 1715.05,1317.56C1715.05,1321.91 1712.01,1325.42 1705.94,1328.09C1699.87,1330.77 1690.93,1332.11 1679.11,1332.11Z" style="fill:rgb(0,36,57);fill-rule:nonzero;"/>
            </g>
            <g transform="matrix(0.105798,0,0,0.202144,1621.74,296.863)">
                <path d="M1970.67,1332.11L1856.87,1332.11L1843.22,1372.73C1865.89,1366.38 1886.82,1363.2 1905.98,1363.2C1921.32,1363.2 1935.65,1364.7 1948.99,1367.71C1962.32,1370.72 1974.02,1374.88 1984.08,1380.19C1994.14,1385.5 2002.05,1391.79 2007.8,1399.06C2013.55,1406.33 2016.42,1414.15 2016.42,1422.51C2016.42,1434.63 2011.23,1445.66 2000.85,1455.61C1990.47,1465.56 1975.5,1473.46 1955.93,1479.31C1936.37,1485.16 1913.81,1488.09 1888.25,1488.09C1859.67,1488.09 1836.47,1485.33 1818.66,1479.81C1800.85,1474.29 1788.23,1467.96 1780.81,1460.81C1773.38,1453.67 1769.67,1447.42 1769.67,1442.07C1769.67,1438.81 1772.26,1435.71 1777.45,1432.79C1782.64,1429.86 1789.15,1428.4 1796.98,1428.4C1810.39,1428.4 1820.38,1432.45 1826.92,1440.56C1833.31,1448 1841.94,1453.79 1852.8,1457.93C1863.66,1462.07 1875.8,1464.14 1889.21,1464.14C1901.51,1464.14 1912.29,1462.46 1921.55,1459.12C1930.82,1455.78 1937.97,1451.18 1943,1445.33C1948.03,1439.48 1950.54,1432.83 1950.54,1425.39C1950.54,1417.37 1947.83,1410.51 1942.4,1404.83C1936.97,1399.14 1929.7,1394.9 1920.6,1392.1C1911.49,1389.3 1901.35,1387.9 1890.17,1387.9C1876.44,1387.9 1866.61,1388.78 1860.7,1390.54C1854.8,1392.29 1846.29,1395.36 1835.19,1399.75C1824.09,1404.14 1814.95,1406.33 1807.76,1406.33C1799.93,1406.33 1792.99,1404.85 1786.92,1401.88C1780.85,1398.91 1777.81,1395.55 1777.81,1391.79C1777.81,1391.37 1778.69,1388.53 1780.45,1383.26L1800.57,1323.2C1802.81,1316.01 1806.96,1310.79 1813.03,1307.53C1819.1,1304.27 1829,1302.64 1842.74,1302.64L1969.23,1302.64C1994.14,1302.64 2006.6,1307.61 2006.6,1317.56C2006.6,1321.91 2003.57,1325.42 1997.5,1328.09C1991.43,1330.77 1982.49,1332.11 1970.67,1332.11Z" style="fill:rgb(0,36,57);fill-rule:nonzero;"/>
            </g>
        </g>
    </g>
    <g transform="matrix(2.26329,0,0,2.26329,1476.8,1331.11)">
        <g>
            <g transform="matrix(0.424391,0,0,0.572728,-615.638,-340.655)">
                <path d="M2113.27,566.169C2113.27,542.782 2087.64,523.795 2056.08,523.795L352.46,523.795C320.899,523.795 295.276,542.782 295.276,566.169L295.276,972.626C295.276,996.013 320.899,1015 352.46,1015L2056.08,1015C2087.64,1015 2113.27,996.013 2113.27,972.626L2113.27,566.169Z" style="fill:white;stroke:rgb(0,36,57);stroke-width:7.3px;"/>
            </g>
            <g transform="matrix(0.441835,0,0,0.441835,-652.5,-554.196)">
                <path d="M664.724,1621.39L663.524,1633.09L568.874,1633.09L570.074,1621.39L581.924,1621.39L589.574,1548.64L618.374,1548.64L619.424,1539.64L581.024,1539.64L582.224,1528.09L620.624,1528.09L621.824,1516.99L634.124,1516.99L632.924,1528.09L672.374,1528.09L671.174,1539.64L631.724,1539.64L630.824,1548.64L651.074,1548.64C658.274,1548.64 661.724,1552.69 661.124,1558.99L654.374,1621.39L664.724,1621.39ZM600.374,1567.69L647.324,1567.69L648.224,1559.74L601.274,1559.74L600.374,1567.69ZM598.574,1585.39L645.524,1585.39L646.274,1577.29L599.324,1577.29L598.574,1585.39ZM596.624,1603.39L643.574,1603.39L644.474,1594.99L597.524,1594.99L596.624,1603.39ZM594.674,1621.39L641.624,1621.39L642.524,1612.99L595.574,1612.99L594.674,1621.39ZM572.924,1662.04L568.424,1651.84C581.024,1647.64 591.824,1642.39 600.524,1636.24L606.674,1645.24C597.374,1652.14 587.024,1657.54 572.924,1662.04ZM631.574,1637.14C642.824,1643.89 651.674,1648.69 662.624,1653.49L656.174,1662.79C644.924,1658.14 635.924,1652.74 625.274,1645.99L631.574,1637.14ZM689.174,1619.74L683.774,1609.09C692.924,1601.74 700.874,1592.74 707.324,1581.49C707.474,1573.69 707.174,1566.49 706.574,1559.89C703.124,1563.94 699.374,1567.69 695.324,1571.44L689.174,1561.09C694.724,1556.14 699.674,1550.89 703.874,1544.89C701.774,1536.64 698.624,1528.99 694.274,1521.49L704.924,1516.39C707.774,1521.19 710.174,1525.99 712.124,1531.24C714.074,1526.89 715.874,1522.24 717.374,1517.14L728.024,1521.79C724.424,1531.09 720.674,1539.04 716.324,1546.09C721.124,1568.44 719.624,1595.74 715.424,1632.64C712.724,1655.59 706.724,1662.19 695.774,1662.19C687.674,1662.19 683.024,1655.29 683.024,1639.24L693.224,1637.74C693.224,1647.49 694.724,1649.74 697.124,1649.74C700.124,1649.74 702.074,1644.79 703.424,1632.34C704.624,1621.39 705.674,1611.49 706.274,1602.34C701.474,1608.94 695.624,1614.94 689.174,1619.74ZM792.824,1554.34L791.474,1566.49L766.274,1566.49L765.224,1577.44C764.324,1587.49 759.524,1598.29 748.724,1598.29C739.424,1598.29 734.024,1593.04 731.924,1582.39L742.124,1579.39C742.724,1583.14 744.974,1585.84 747.674,1585.84C751.424,1585.84 752.924,1582.24 753.374,1575.94L754.274,1566.49L726.824,1566.49L728.174,1554.34L755.624,1554.34L756.524,1544.59L771.074,1533.64L735.974,1533.64L737.174,1521.79L777.224,1521.79C790.424,1521.79 790.124,1532.29 783.824,1535.74L768.074,1548.79L767.624,1554.34L792.824,1554.34ZM786.674,1650.19L785.324,1662.19L713.174,1662.19L714.524,1650.19L719.924,1650.19L724.724,1603.54L774.374,1603.54C782.474,1603.54 785.174,1608.04 784.724,1612.69L780.674,1650.19L786.674,1650.19ZM731.324,1650.19L737.774,1650.19L741.374,1615.84L734.924,1615.84L731.324,1650.19ZM747.524,1650.19L753.824,1650.19L757.424,1615.84L751.124,1615.84L747.524,1650.19ZM763.574,1650.19L769.424,1650.19L773.024,1615.84L767.174,1615.84L763.574,1650.19ZM895.724,1646.44L894.224,1660.09L813.524,1660.09L814.874,1646.44L848.924,1646.44L855.974,1578.94L816.524,1578.94L817.874,1565.29L857.474,1565.29L862.574,1516.99L876.374,1516.99L871.274,1565.29L909.374,1565.29L907.874,1578.94L869.774,1578.94L862.724,1646.44L895.724,1646.44ZM966.974,1662.19L975.674,1579.24C964.874,1594.99 950.924,1609.39 931.874,1623.94L923.174,1611.94C952.424,1589.74 972.224,1563.34 981.824,1536.19L938.774,1536.19L940.124,1523.14L1037.17,1523.14L1035.82,1536.19L996.824,1536.19C995.474,1540.09 993.974,1543.84 992.474,1547.59L980.774,1662.19L966.974,1662.19ZM1030.87,1615.84L1017.82,1621.39C1010.92,1600.69 1001.62,1579.39 993.824,1565.89L1006.42,1559.89C1015.27,1575.49 1024.27,1595.29 1030.87,1615.84ZM1143.22,1533.04L1138.42,1577.14L1066.27,1577.14L1072.12,1521.79L1132.72,1521.79C1140.67,1521.79 1143.97,1526.74 1143.22,1533.04ZM1082.47,1543.54L1129.12,1543.54L1130.17,1533.79L1083.37,1533.79L1082.47,1543.54ZM1080.22,1565.14L1126.87,1565.14L1127.92,1554.49L1081.27,1554.49L1080.22,1565.14ZM1079.32,1604.14C1078.42,1609.84 1076.92,1615.84 1074.97,1621.84C1079.02,1629.19 1084.57,1635.64 1091.17,1640.29L1095.52,1598.29L1052.02,1598.29L1053.37,1585.24L1149.52,1585.24L1148.17,1598.29L1108.87,1598.29L1107.22,1613.59L1138.57,1613.59L1137.22,1626.04L1105.87,1626.04L1103.62,1646.89C1107.52,1648.24 1111.72,1648.99 1115.92,1649.14C1125.97,1649.44 1133.32,1647.79 1141.27,1642.84L1145.77,1654.24C1136.47,1659.79 1129.42,1661.89 1114.87,1661.89C1096.72,1661.89 1079.92,1652.59 1069.12,1636.39C1064.47,1645.99 1058.62,1654.84 1051.27,1662.19L1041.97,1653.79C1053.97,1642.54 1064.02,1620.94 1067.32,1601.59L1079.32,1604.14ZM1215.22,1584.19L1201.72,1584.19L1206.52,1543.24L1176.52,1543.24L1178.02,1529.59L1219.57,1529.59L1220.92,1516.99L1234.42,1516.99L1233.07,1529.59L1276.42,1529.59L1274.92,1543.24L1243.27,1543.24L1238.77,1584.19L1225.27,1584.19L1229.77,1543.24L1220.02,1543.24L1215.22,1584.19ZM1182.07,1587.64L1170.67,1581.04C1177.27,1570.69 1182.37,1559.89 1185.82,1548.79L1197.82,1552.84C1194.67,1564.24 1189.87,1575.19 1182.07,1587.64ZM1269.52,1582.09L1256.62,1586.59C1252.72,1574.44 1250.32,1561.99 1250.02,1551.64L1262.77,1548.79C1263.82,1559.74 1265.92,1571.44 1269.52,1582.09ZM1164.52,1662.49L1162.57,1649.44C1178.47,1647.49 1191.82,1642.99 1202.62,1637.14C1195.12,1629.64 1189.72,1621.09 1186.27,1612.09L1199.47,1608.79C1202.47,1616.44 1207.27,1623.49 1214.17,1629.49C1224.37,1621.69 1231.12,1612.84 1234.42,1604.74L1185.37,1604.74L1186.72,1591.24L1238.62,1591.24C1248.97,1591.24 1252.27,1596.79 1248.37,1606.84C1244.47,1617.04 1236.97,1627.99 1225.72,1637.59C1235.92,1643.29 1248.82,1647.49 1264.87,1649.59L1261.87,1662.79C1241.77,1660.39 1226.02,1654.39 1213.87,1646.29C1200.97,1654.39 1184.62,1660.39 1164.52,1662.49ZM1289.17,1596.19C1309.72,1587.04 1325.92,1568.89 1333.72,1549.69L1299.07,1549.69L1300.57,1536.49L1337.62,1536.49C1337.92,1534.69 1338.22,1532.89 1338.37,1531.09L1339.72,1516.99L1353.37,1516.99L1352.02,1531.54C1351.87,1533.19 1351.57,1534.84 1351.42,1536.49L1393.57,1536.49L1392.07,1549.69L1353.82,1549.69C1359.52,1567.99 1372.27,1585.54 1389.67,1596.64L1380.67,1607.44C1363.72,1594.09 1350.97,1577.59 1343.92,1558.54C1340.62,1565.29 1336.87,1571.74 1332.37,1577.89C1337.02,1582.24 1341.67,1587.34 1345.72,1592.89L1337.17,1601.59C1333.12,1596.19 1328.92,1591.24 1324.72,1587.04C1317.07,1595.29 1307.92,1602.34 1297.12,1607.29L1289.17,1596.19ZM1351.42,1625.44L1342.12,1632.79C1337.17,1624.84 1332.37,1618.39 1326.82,1612.54L1335.97,1605.34C1341.82,1611.64 1346.92,1617.79 1351.42,1625.44ZM1293.52,1657.69L1282.12,1651.69C1288.57,1638.94 1292.62,1625.89 1295.32,1613.14L1307.32,1616.14C1304.47,1629.49 1300.27,1644.04 1293.52,1657.69ZM1388.02,1653.79L1375.72,1658.14C1373.32,1643.44 1369.72,1629.19 1365.07,1617.79L1376.92,1613.44C1381.72,1625.14 1385.47,1640.29 1388.02,1653.79ZM1354.27,1630.24L1366.87,1633.09C1363.87,1653.04 1354.27,1663.84 1337.47,1663.84C1328.77,1663.84 1320.22,1661.29 1314.97,1650.79C1311.52,1643.89 1310.17,1632.49 1311.67,1618.54L1324.42,1618.54C1323.37,1627.99 1323.67,1634.29 1325.32,1640.14C1327.42,1648.24 1332.07,1650.49 1337.47,1650.49C1346.17,1650.49 1352.47,1644.19 1354.27,1630.24ZM569.174,1438.74L560.924,1429.59C570.674,1419.39 578.624,1408.74 584.924,1397.34C580.124,1391.04 575.324,1385.34 570.674,1380.24C575.474,1365.09 579.374,1348.89 582.674,1331.34L570.824,1331.19L572.324,1318.59L584.774,1318.74C586.124,1310.94 587.324,1302.84 588.374,1294.44L600.824,1295.19C599.774,1303.29 598.574,1311.09 597.374,1318.74L608.324,1318.89C616.274,1318.89 619.874,1323.54 618.824,1331.34C615.524,1354.44 609.824,1375.89 599.774,1395.84C603.074,1400.34 606.374,1404.84 609.674,1409.49L599.924,1418.64C597.524,1415.04 595.274,1411.59 592.874,1408.29C586.424,1418.79 578.624,1428.99 569.174,1438.74ZM584.324,1376.64C586.574,1379.19 588.824,1382.04 591.224,1385.04C598.874,1368.09 603.524,1350.24 606.374,1331.49L595.274,1331.34C592.274,1347.39 588.674,1362.54 584.324,1376.64ZM671.474,1355.34L669.974,1368.54L650.624,1368.54L646.124,1412.94C644.474,1428.54 638.624,1439.34 627.224,1439.34C617.024,1439.34 611.324,1431.99 609.224,1418.04L621.074,1415.34C621.824,1421.64 623.174,1425.54 626.624,1425.54C629.624,1425.54 631.874,1422.09 632.924,1411.44L637.274,1368.54L614.774,1368.54L616.124,1355.34L638.474,1355.34L640.124,1338.99L656.924,1312.89L621.374,1312.89L622.724,1299.99L662.324,1299.99C672.074,1299.99 674.624,1307.64 670.424,1314.24L653.474,1341.09L651.974,1355.34L671.474,1355.34ZM693.074,1439.34L686.324,1427.49C704.324,1420.44 716.924,1409.34 723.974,1392.69L693.524,1392.69L695.024,1379.64L728.174,1379.64L728.174,1379.34L730.874,1365.39L702.524,1365.39L709.574,1298.79L775.724,1298.79C784.574,1298.79 787.424,1304.49 786.674,1310.79L780.824,1365.39L744.374,1365.39L742.124,1378.74C742.124,1379.04 741.974,1379.34 741.974,1379.64L772.424,1379.64C779.924,1379.64 784.424,1384.89 783.524,1391.49L779.924,1417.89C778.424,1428.99 771.224,1439.34 756.674,1439.34C743.324,1439.34 735.674,1431.99 733.424,1419.69L745.724,1417.14C746.924,1423.74 750.674,1427.04 756.074,1427.04C762.524,1427.04 765.374,1422.39 766.574,1414.89L769.724,1392.69L738.224,1392.69C730.274,1415.04 714.074,1431.39 693.074,1439.34ZM748.724,1352.79L768.824,1352.79L770.474,1337.19L750.374,1337.19L748.724,1352.79ZM717.224,1352.79L736.424,1352.79L738.074,1337.19L718.724,1337.19L717.224,1352.79ZM751.574,1326.09L771.674,1326.09L773.324,1311.39L753.074,1311.39L751.574,1326.09ZM719.924,1326.09L739.274,1326.09L740.774,1311.39L721.424,1311.39L719.924,1326.09ZM909.824,1429.14L898.724,1438.89C874.874,1409.19 864.974,1388.34 861.374,1363.74C854.324,1389.39 841.874,1412.19 810.824,1439.34L801.374,1427.94C840.674,1394.49 851.774,1361.64 855.524,1327.74L858.974,1296.39L873.224,1296.39L869.924,1328.64C871.874,1367.64 879.074,1392.09 909.824,1429.14ZM966.974,1439.19L975.674,1356.24C964.874,1371.99 950.924,1386.39 931.874,1400.94L923.174,1388.94C952.424,1366.74 972.224,1340.34 981.824,1313.19L938.774,1313.19L940.124,1300.14L1037.17,1300.14L1035.82,1313.19L996.824,1313.19C995.474,1317.09 993.974,1320.84 992.474,1324.59L980.774,1439.19L966.974,1439.19ZM1030.87,1392.84L1017.82,1398.39C1010.92,1377.69 1001.62,1356.39 993.824,1342.89L1006.42,1336.89C1015.27,1352.49 1024.27,1372.29 1030.87,1392.84ZM1058.32,1355.94L1049.62,1346.04C1065.97,1328.94 1075.87,1311.69 1081.72,1293.84L1094.17,1297.14C1092.97,1301.04 1091.32,1305.24 1089.52,1309.59L1129.27,1309.59C1136.92,1309.59 1141.57,1314.24 1140.67,1322.64L1134.07,1386.54C1132.42,1401.39 1125.52,1406.34 1113.82,1406.34L1108.27,1406.34L1108.12,1393.59L1111.87,1393.59C1119.22,1393.59 1120.42,1391.49 1121.32,1383.84L1127.77,1322.94L1082.77,1322.94C1080.52,1327.14 1077.82,1331.19 1074.97,1335.39L1099.87,1335.39C1107.82,1335.39 1112.47,1339.59 1111.57,1347.54L1107.22,1389.24L1075.27,1389.24L1074.07,1401.09C1071.97,1421.79 1080.82,1426.89 1098.82,1426.89C1121.32,1426.89 1132.72,1415.94 1136.92,1400.94L1149.07,1403.34C1144.27,1424.64 1128.07,1439.49 1097.62,1439.49C1074.97,1439.49 1058.02,1430.94 1061.02,1401.99L1066.87,1346.19C1064.17,1349.49 1061.32,1352.79 1058.32,1355.94ZM1076.77,1376.49L1095.37,1376.49L1098.37,1347.99L1079.77,1347.99L1076.77,1376.49ZM1267.42,1305.69L1265.77,1320.39L1184.17,1320.39L1185.82,1305.69L1267.42,1305.69ZM1264.87,1417.74L1263.37,1432.29L1165.57,1432.29L1167.07,1417.74L1264.87,1417.74ZM1289.47,1438.74L1280.92,1429.89C1290.07,1419.24 1297.72,1408.29 1303.87,1396.74C1299.22,1390.59 1294.42,1385.19 1290.07,1380.24C1294.72,1365.09 1298.32,1348.89 1301.47,1331.34L1290.67,1331.19L1292.02,1318.59L1303.57,1318.74C1304.77,1310.94 1305.97,1302.84 1307.02,1294.44L1319.02,1294.89C1318.12,1302.99 1316.92,1311.09 1315.72,1318.74L1326.97,1318.89C1334.77,1318.89 1338.22,1323.54 1337.32,1330.89C1334.02,1354.29 1328.17,1375.44 1318.72,1395.24C1321.42,1398.84 1324.12,1402.59 1326.67,1406.19L1317.22,1415.34C1315.57,1412.79 1313.77,1410.24 1311.97,1407.84C1305.82,1418.49 1298.32,1428.84 1289.47,1438.74ZM1303.27,1376.34C1305.52,1378.74 1307.77,1381.44 1310.02,1384.29C1317.52,1367.64 1322.32,1349.94 1325.17,1331.49L1313.62,1331.34C1310.77,1347.24 1307.47,1362.39 1303.27,1376.34ZM1371.67,1313.34L1358.92,1313.34L1355.02,1345.74C1350.52,1381.74 1340.92,1419.24 1323.22,1440.54L1313.32,1432.14C1328.77,1414.59 1338.07,1380.99 1342.27,1345.59L1346.32,1313.34L1334.32,1313.34L1335.82,1299.99L1373.32,1299.99C1384.12,1299.99 1386.22,1305.84 1383.97,1315.29L1376.32,1346.64L1380.97,1346.64C1388.32,1346.64 1390.87,1352.04 1389.97,1359.39L1383.97,1412.64C1382.32,1427.79 1375.72,1439.34 1363.42,1439.34C1351.57,1439.34 1345.12,1429.89 1343.47,1415.04L1355.17,1412.34C1356.07,1422.24 1359.37,1426.59 1362.97,1426.59C1367.17,1426.59 1369.87,1422.69 1371.37,1409.94L1377.22,1360.14L1360.57,1360.14L1371.67,1313.34Z" style="fill:rgb(0,36,57);"/>
            </g>
            <g transform="matrix(1,0,0,1,-14.1387,5.96477)">
                <g>
                    <g transform="matrix(1,0,0,1.12505,23.8591,-13.5658)">
                        <path d="M164.311,175.744L35.255,175.744C39.003,133.441 37.007,93.793 36.097,75.984C37.339,76.15 38.503,76.238 39.568,76.238C45.046,76.238 48.095,74.42 48.228,74.342C74.375,60.881 58.074,27.072 56.632,16.193C57.619,15.993 73.183,15.775 74.162,15.539C75.814,33.945 86.703,47.795 99.775,48.072L100.242,48.072C113.305,47.795 124.193,33.945 125.846,15.539C126.777,15.762 142.786,15.982 143.829,16.193C142.376,27.07 125.203,60.881 151.316,74.318C151.473,74.418 154.533,76.236 159.998,76.236C161.063,76.236 162.238,76.148 163.469,75.982C162.559,93.793 160.574,133.441 164.311,175.744Z" style="fill:rgb(0,36,57);fill-rule:nonzero;"/>
                    </g>
                    <g transform="matrix(-0.306149,3.74925e-17,-3.87422e-17,-0.316354,668.888,547.012)">
                        <path d="M1711,1421C1732.44,1422.3 1751.64,1436.25 1759.5,1456.24C1764.89,1477.03 1757.56,1499.61 1740.98,1513.26C1722.87,1524.81 1699.13,1524.81 1681.02,1513.26C1664.44,1499.61 1657.11,1477.03 1662.5,1456.24C1670.36,1436.25 1689.56,1422.3 1711,1421Z" style="fill:white;"/>
                    </g>
                    <g transform="matrix(-1.04091,1.27474e-16,-1.27474e-16,-1.04091,1908.36,1608.79)">
                        <path d="M1696.83,1461.06L1698.78,1462.47L1695.95,1466.37L1700.53,1467.86L1699.78,1470.14L1695.2,1468.66L1695.2,1473.47L1692.8,1473.47L1692.8,1468.66L1688.22,1470.14L1687.47,1467.86L1692.05,1466.37L1689.22,1462.47L1691.17,1461.06L1694,1464.95L1696.83,1461.06Z"/>
                    </g>
                    <g transform="matrix(-0.306149,3.74925e-17,-3.87422e-17,-0.316354,628.91,547.012)">
                        <path d="M1711,1421C1732.44,1422.3 1751.64,1436.25 1759.5,1456.24C1764.89,1477.03 1757.56,1499.61 1740.98,1513.26C1722.87,1524.81 1699.13,1524.81 1681.02,1513.26C1664.44,1499.61 1657.11,1477.03 1662.5,1456.24C1670.36,1436.25 1689.56,1422.3 1711,1421Z" style="fill:white;"/>
                    </g>
                    <g transform="matrix(-1.04091,1.27474e-16,-1.27474e-16,-1.04091,1868.39,1608.79)">
                        <path d="M1696.83,1461.06L1698.78,1462.47L1695.95,1466.37L1700.53,1467.86L1699.78,1470.14L1695.2,1468.66L1695.2,1473.47L1692.8,1473.47L1692.8,1468.66L1688.22,1470.14L1687.47,1467.86L1692.05,1466.37L1689.22,1462.47L1691.17,1461.06L1694,1464.95L1696.83,1461.06Z"/>
                    </g>
                </g>
            </g>
        </g>
    </g>
</svg>
