<svg xmlns="http://www.w3.org/2000/svg" width="64" height="64" viewBox="0 0 64 64">
  <g id="logo" transform="translate(15.007 251.291)">
    <rect id="box" width="64" height="64" transform="translate(-15.007 -251.291)" fill="#030712" opacity="0"/>
    <path id="logo-2" data-name="logo" d="M2.032,42.08C.073,39.063,2.548,33.721,7.909,28.1q.392.78.822,1.48a31.592,31.592,0,0,0-4.055,5.27,11.874,11.874,0,0,0-1.613,3.975A3.3,3.3,0,0,0,3.4,41.208,3.358,3.358,0,0,0,5.45,42.5a12.105,12.105,0,0,0,4.317.19c5.325-.554,12.576-3.335,19.887-7.87a69.163,69.163,0,0,0-7.077-12.864A65.117,65.117,0,0,1,30.77,34.113c7.453-4.8,13.22-10.348,16-15.039A11.87,11.87,0,0,0,48.386,15.1a3.3,3.3,0,0,0-.336-2.385A3.358,3.358,0,0,0,46,11.421a12.145,12.145,0,0,0-4.317-.19,36.01,36.01,0,0,0-9.055,2.387c-.288-.465-.589-.925-.9-1.375,8.487-3.359,15.519-3.742,17.688-.4,3.1,4.781-4.925,15.4-17.931,23.733.859,1.818,1.66,3.75,2.458,5.892-.466,2.153-1.509,2.115-2.947.58a12.553,12.553,0,0,0-.785-5.673C21.81,41.529,13.5,44.4,7.974,44.4,5.153,44.4,3.053,43.652,2.032,42.08Zm41.557-5.2-2.248-.943,2.248-.943.865-2.451.866,2.451,2.248.943-2.248.943-.866,2.451Zm-27.948-3.15C11.165,31.69,7.575,26.37,6.292,17.19c-.913-6.533.49-11.757.266-16.582,5.636,1.327,8.88-.175,18.5,6.672,2.827,2.012,9.3,10.2,9.14,15.077-.127,3.8-2.587,6.012-4.933,7.633-2.161-3.937-5.85-7.568-9.005-11.045,2.511,4.285,5.545,8.62,7.021,12.43l-.206.127c-1.742,1.068-4.795,2.938-8.1,2.938A7.95,7.95,0,0,1,15.641,33.727ZM1.6,25.546,0,24.911l1.6-.636.615-1.651.615,1.651,1.6.636-1.6.635L2.212,27.2ZM30.62,2.22l-1.214-.484,1.214-.483L31.087,0l.467,1.254,1.214.483-1.214.484-.467,1.254Z" transform="translate(-8.408 -241.291)" fill="#030712"/>
  </g>
</svg>
