<svg xmlns="http://www.w3.org/2000/svg" xmlns:xlink="http://www.w3.org/1999/xlink" width="400.347" height="300" viewBox="0 0 400.347 300">
  <defs>
    <clipPath id="clip-path">
      <rect id="矩形_145" data-name="矩形 145" width="400.347" height="300" fill="none"/>
    </clipPath>
    <clipPath id="clip-path-2">
      <rect id="矩形_114" data-name="矩形 114" width="11.642" height="18.383" fill="#fff" stroke="#6b7280" stroke-linecap="round" stroke-linejoin="round" stroke-width="1"/>
    </clipPath>
    <clipPath id="clip-path-3">
      <rect id="矩形_119" data-name="矩形 119" width="180.495" height="73.119" fill="#fff" stroke="#6b7280" stroke-linecap="round" stroke-linejoin="round" stroke-width="1"/>
    </clipPath>
    <clipPath id="clip-path-4">
      <rect id="矩形_122" data-name="矩形 122" width="25.768" height="52.348" fill="#1b1b1b" stroke="#6b7280" stroke-linecap="round" stroke-linejoin="round" stroke-width="1"/>
    </clipPath>
    <clipPath id="clip-path-5">
      <rect id="矩形_131" data-name="矩形 131" width="135.757" height="6.096" fill="#1b1b1b" stroke="#6b7280" stroke-linecap="round" stroke-linejoin="round" stroke-width="1"/>
    </clipPath>
    <clipPath id="clip-path-6">
      <path id="路径_2694" data-name="路径 2694" d="M1743.177,841.9H1616.83V721.5L1680,678.2l63.173,43.306Z" transform="translate(-1616.83 -678.198)" fill="#fff" stroke="#6b7280" stroke-linecap="round" stroke-linejoin="round" stroke-width="1"/>
    </clipPath>
    <clipPath id="clip-path-7">
      <path id="路径_2698" data-name="路径 2698" d="M2448.064,1807.561q-.8,0-1.594.043c-6.969-9.1-17.373-14.889-29.006-14.889-16.932,0-31.27,12.246-36.17,29.156-11.9,2.09-20.994,13.475-20.994,27.209,0,.9.045,1.791.119,2.67h117.66a37.873,37.873,0,0,0,1.244-9.65C2479.324,1823.023,2465.33,1807.561,2448.064,1807.561Z" transform="translate(-2360.301 -1792.715)" fill="#fff" stroke="#6b7280" stroke-linecap="round" stroke-linejoin="round" stroke-width="1"/>
    </clipPath>
    <clipPath id="clip-path-8">
      <path id="路径_2702" data-name="路径 2702" d="M2006.326,1981.172c-.373,0-.744.01-1.113.031a25.525,25.525,0,0,0-20.252-10.395c-11.82,0-21.83,8.549-25.252,20.354-8.307,1.461-14.656,9.408-14.656,19,0,.629.031,1.25.082,1.863h82.146a26.6,26.6,0,0,0,.869-6.738C2028.15,1991.969,2018.379,1981.172,2006.326,1981.172Z" transform="translate(-1945.053 -1970.809)" fill="#fff" stroke="#6b7280" stroke-linecap="round" stroke-linejoin="round" stroke-width="1"/>
    </clipPath>
  </defs>
  <g id="pic" clip-path="url(#clip-path)">
    <rect id="矩形_113" data-name="矩形 113" width="11.642" height="18.383" transform="translate(69.453 133.046)" fill="#fff"/>
    <g id="组_7" data-name="组 7" transform="translate(69.453 133.046)" clip-path="url(#clip-path-2)">
      <path id="路径_2686" data-name="路径 2686" d="M664.107,1281.016c-16.6-.812-15.111,6.975-14.687,10.8s-5.79-3.646-5.79-3.646l2.118-14.831,11.58.853" transform="translate(-648.685 -1278.982)" fill="#fff"/>
    </g>
    <rect id="矩形_115" data-name="矩形 115" width="11.642" height="18.383" transform="translate(69.453 133.046)" fill="none" stroke="#6b7280" stroke-linecap="round" stroke-linejoin="round" stroke-width="1"/>
    <rect id="矩形_116" data-name="矩形 116" width="14.005" height="3.11" transform="translate(68.271 131.158)" fill="#6b7280" stroke="#6b7280" stroke-linecap="round" stroke-linejoin="round" stroke-width="1"/>
    <rect id="矩形_117" data-name="矩形 117" width="180.495" height="73.119" transform="translate(52.8 164.541)" fill="#fff"/>
    <g id="组_8" data-name="组 8" transform="translate(52.8 164.541)" clip-path="url(#clip-path-3)">
      <rect id="矩形_118" data-name="矩形 118" width="130.074" height="16.109" transform="translate(-7.762 49.71)" fill="#fff"/>
    </g>
    <rect id="矩形_120" data-name="矩形 120" width="180.495" height="73.119" transform="translate(52.8 164.541)" fill="none" stroke="#6b7280" stroke-linecap="round" stroke-linejoin="round" stroke-width="1"/>
    <path id="路径_2687" data-name="路径 2687" d="M638.384,1441.35H457.889l-7.762,20.325h196.02Z" transform="translate(-405.089 -1297.135)" fill="#fff"/>
    <path id="路径_2688" data-name="路径 2688" d="M638.384,1441.35H457.889l-7.762,20.325h196.02Z" transform="translate(-405.089 -1297.135)" fill="none" stroke="#6b7280" stroke-linecap="round" stroke-linejoin="round" stroke-width="1"/>
    <rect id="矩形_121" data-name="矩形 121" width="25.768" height="52.348" transform="translate(75.274 181.718)" fill="#6b7280"/>
    <g id="组_9" data-name="组 9" transform="translate(75.274 181.718)" clip-path="url(#clip-path-4)">
      <path id="路径_2689" data-name="路径 2689" d="M687.293,1749.539c-1.835,54.82.5,51.1-28.453,51.41s36.262,4.531,36.262,4.531l-.816-60.082-8.618-3.27" transform="translate(-661.525 -1749.537)" fill="#fff"/>
    </g>
    <rect id="矩形_123" data-name="矩形 123" width="25.768" height="52.348" transform="translate(75.274 181.718)" fill="none" stroke="#6b7280" stroke-linecap="round" stroke-linejoin="round" stroke-width="1"/>
    <rect id="矩形_124" data-name="矩形 124" width="34.342" height="4.54" transform="translate(71.619 179.448)" fill="#fff" stroke="#6b7280" stroke-linecap="round" stroke-linejoin="round" stroke-width="1"/>
    <rect id="矩形_125" data-name="矩形 125" width="28.483" height="20.034" transform="translate(121.14 178.38)" fill="#fff" stroke="#6b7280" stroke-linecap="round" stroke-linejoin="round" stroke-width="1"/>
    <rect id="矩形_126" data-name="矩形 126" width="31.599" height="3.882" transform="translate(119.583 198.414)" fill="#fff" stroke="#6b7280" stroke-linecap="round" stroke-linejoin="round" stroke-width="1"/>
    <rect id="矩形_127" data-name="矩形 127" width="21.855" height="14.732" transform="translate(124.454 181.031)" fill="#fff" stroke="#6b7280" stroke-linecap="round" stroke-linejoin="round" stroke-width="1"/>
    <rect id="矩形_128" data-name="矩形 128" width="6.942" height="14.732" transform="translate(124.454 181.031)" fill="#fff" stroke="#6b7280" stroke-linecap="round" stroke-linejoin="round" stroke-width="1"/>
    <rect id="矩形_129" data-name="矩形 129" width="0.715" height="10.804" transform="translate(99.059 199.359)" fill="#fff" stroke="#6b7280" stroke-linecap="round" stroke-linejoin="round" stroke-width="1"/>
    <path id="路径_2690" data-name="路径 2690" d="M1705.566,672.466V663.8l-67.88-46.53L1569.81,663.8v8.666Z" transform="translate(-1412.742 -555.509)" fill="#fff" stroke="#6b7280" stroke-linecap="round" stroke-linejoin="round" stroke-width="1"/>
    <rect id="矩形_130" data-name="矩形 130" width="135.757" height="6.096" transform="translate(157.068 231.563)" fill="#6b7280"/>
    <g id="组_10" data-name="组 10" transform="translate(157.068 231.563)" clip-path="url(#clip-path-5)">
      <path id="路径_2691" data-name="路径 2691" d="M1862.877,2247.311c-15.758,12.8-12.939,24.928-12.939,24.928l18.52-1.705v-21.605" transform="translate(-1821.733 -2254.017)" fill="#fff"/>
    </g>
    <rect id="矩形_132" data-name="矩形 132" width="135.757" height="6.096" transform="translate(157.068 231.563)" fill="none" stroke="#6b7280" stroke-linecap="round" stroke-linejoin="round" stroke-width="1"/>
    <path id="路径_2692" data-name="路径 2692" d="M1743.177,841.9H1616.83V721.5L1680,678.2l63.173,43.306Z" transform="translate(-1455.058 -610.34)" fill="#fff"/>
    <g id="组_11" data-name="组 11" transform="translate(161.773 67.858)" clip-path="url(#clip-path-6)">
      <path id="路径_2693" data-name="路径 2693" d="M1979.256,1673c-40.937,8.338-47.7,33.707-47.7,33.707s-32.891-19.18-44.939,9.063c0,0-18.453,5.391-19.957,24.449s95.271,19.814,95.271,19.814l32.762-72.709-5.646-8.023" transform="translate(-1841.648 -1573.464)" fill="#fff"/>
    </g>
    <path id="路径_2695" data-name="路径 2695" d="M1743.177,841.9H1616.83V721.5L1680,678.2l63.173,43.306Z" transform="translate(-1455.058 -610.34)" fill="none" stroke="#6b7280" stroke-linecap="round" stroke-linejoin="round" stroke-width="1"/>
    <rect id="矩形_133" data-name="矩形 133" width="48.198" height="33.9" transform="translate(200.848 106.351)" fill="#fff" stroke="#6b7280" stroke-linecap="round" stroke-linejoin="round" stroke-width="1"/>
    <rect id="矩形_134" data-name="矩形 134" width="53.47" height="3.198" transform="translate(198.211 140.251)" fill="#fff" stroke="#6b7280" stroke-linecap="round" stroke-linejoin="round" stroke-width="1"/>
    <rect id="矩形_135" data-name="矩形 135" width="42.308" height="26.031" transform="translate(203.792 110.285)" fill="#fff" stroke="#6b7280" stroke-linecap="round" stroke-linejoin="round" stroke-width="1"/>
    <rect id="矩形_136" data-name="矩形 136" width="13.439" height="26.031" transform="translate(203.792 110.285)" fill="#fff" stroke="#6b7280" stroke-linecap="round" stroke-linejoin="round" stroke-width="1"/>
    <rect id="矩形_137" data-name="矩形 137" width="40.58" height="4.531" transform="translate(68.271 233.129)" fill="#fff" stroke="#6b7280" stroke-linecap="round" stroke-linejoin="round" stroke-width="1"/>
    <path id="路径_2696" data-name="路径 2696" d="M2448.064,1807.561q-.8,0-1.594.043c-6.969-9.1-17.373-14.889-29.006-14.889-16.932,0-31.27,12.246-36.17,29.156-11.9,2.09-20.994,13.475-20.994,27.209,0,.9.045,1.791.119,2.67h117.66a37.873,37.873,0,0,0,1.244-9.65C2479.324,1823.023,2465.33,1807.561,2448.064,1807.561Z" transform="translate(-2124.139 -1613.344)" fill="#fff"/>
    <g id="组_12" data-name="组 12" transform="translate(236.161 179.371)" clip-path="url(#clip-path-7)">
      <path id="路径_2697" data-name="路径 2697" d="M2396.549,2013.586c52.816-9.951,46.338,42.8,46.338,42.8l-43.795-10.789" transform="translate(-2392.921 -1990.363)" fill="#fff"/>
    </g>
    <path id="路径_2699" data-name="路径 2699" d="M2448.064,1807.561q-.8,0-1.594.043c-6.969-9.1-17.373-14.889-29.006-14.889-16.932,0-31.27,12.246-36.17,29.156-11.9,2.09-20.994,13.475-20.994,27.209,0,.9.045,1.791.119,2.67h117.66a37.873,37.873,0,0,0,1.244-9.65C2479.324,1823.023,2465.33,1807.561,2448.064,1807.561Z" transform="translate(-2124.139 -1613.344)" fill="none" stroke="#6b7280" stroke-linecap="round" stroke-linejoin="round" stroke-width="1"/>
    <path id="路径_2700" data-name="路径 2700" d="M2006.326,1981.172c-.373,0-.744.01-1.113.031a25.525,25.525,0,0,0-20.252-10.395c-11.82,0-21.83,8.549-25.252,20.354-8.307,1.461-14.656,9.408-14.656,19,0,.629.031,1.25.082,1.863h82.146a26.6,26.6,0,0,0,.869-6.738C2028.15,1991.969,2018.379,1981.172,2006.326,1981.172Z" transform="translate(-1750.44 -1773.617)" fill="#fff"/>
    <g id="组_13" data-name="组 13" transform="translate(194.614 197.191)" clip-path="url(#clip-path-8)">
      <path id="路径_2701" data-name="路径 2701" d="M1720.263,1925.381c-45,67.467,2.822,35.578,48.012,48.869s-83.094,20.221-83.094,20.221l-32.893-16.406s43.689-51.168,45.193-51.547" transform="translate(-1681.581 -1929.927)" fill="#fff"/>
    </g>
    <path id="路径_2703" data-name="路径 2703" d="M2006.326,1981.172c-.373,0-.744.01-1.113.031a25.525,25.525,0,0,0-20.252-10.395c-11.82,0-21.83,8.549-25.252,20.354-8.307,1.461-14.656,9.408-14.656,19,0,.629.031,1.25.082,1.863h82.146a26.6,26.6,0,0,0,.869-6.738C2028.15,1991.969,2018.379,1981.172,2006.326,1981.172Z" transform="translate(-1750.44 -1773.617)" fill="none" stroke="#6b7280" stroke-linecap="round" stroke-linejoin="round" stroke-width="1"/>
    <rect id="矩形_138" data-name="矩形 138" width="9.078" height="3.009" transform="translate(180.735 167.393)" fill="#fff"/>
    <rect id="矩形_139" data-name="矩形 139" width="9.078" height="3.009" transform="translate(210.512 158.429)" fill="#fff"/>
    <rect id="矩形_140" data-name="矩形 140" width="9.078" height="3.009" transform="translate(219.59 184.696)" fill="#fff"/>
    <rect id="矩形_141" data-name="矩形 141" width="9.078" height="3.009" transform="translate(249.368 175.732)" fill="#fff"/>
    <rect id="矩形_142" data-name="矩形 142" width="9.078" height="3.009" transform="translate(173.49 186.893)" fill="#fff"/>
    <rect id="矩形_143" data-name="矩形 143" width="9.078" height="3.009" transform="translate(241.057 157.356)" fill="#fff"/>
    <rect id="矩形_144" data-name="矩形 144" width="9.078" height="3.009" transform="translate(270.835 148.392)" fill="#fff"/>
    <path id="路径_2704" data-name="路径 2704" d="M924.674,1528.87l-1.13,1.136" transform="translate(-831.138 -1375.898)" fill="none" stroke="#6b7280" stroke-linecap="round" stroke-linejoin="round" stroke-width="1"/>
    <path id="路径_2705" data-name="路径 2705" d="M2508.8,2256.2l-4.52,4.547" transform="translate(-2253.711 -2030.457)" fill="none" stroke="#6b7280" stroke-linecap="round" stroke-linejoin="round" stroke-width="1"/>
    <path id="路径_2706" data-name="路径 2706" d="M2579.748,1064.45l-6.838,6.76" transform="translate(-2315.476 -957.946)" fill="none" stroke="#6b7280" stroke-linecap="round" stroke-linejoin="round" stroke-width="1"/>
  </g>
</svg>
